<svg width="66" height="66" viewBox="0 0 66 66" fill="none" xmlns="http://www.w3.org/2000/svg">
<g clip-path="url(#clip0_14_18)">
<path d="M61.8263 0.776611L56.4193 59.3419L32.9934 65.6494L9.56717 59.3419L4.16138 0.776611H61.8263ZM50.931 12.6849H32.9724H14.6956L15.5696 19.7572H32.9724H33.9499L32.9724 20.1641L16.2057 27.1473L16.7617 34.0603L32.9724 34.1129L41.6608 34.1404L41.1046 43.358L32.9722 45.6476V45.6403L32.9056 45.6589L25.0518 43.6762L24.5752 37.9545H24.5492H17.2643H17.2387L18.1922 49.0003L32.9725 53.3711V53.3633L32.9992 53.3711L47.7002 49.0799L49.6072 27.1473H32.9725H32.9315L32.9725 27.1295L50.2165 19.7572L50.931 12.6849Z" fill="#8D8144"/>
</g>
<defs>
<clipPath id="clip0_14_18">
<rect width="65" height="65" fill="white" transform="translate(0.493896 0.713013)"/>
</clipPath>
</defs>
</svg>
