<svg width="81" height="81" viewBox="0 0 81 81" fill="none" xmlns="http://www.w3.org/2000/svg">
<path fill-rule="evenodd" clip-rule="evenodd" d="M36.9797 6.97327H30.3131C22.9493 6.97327 16.9797 12.9428 16.9797 20.3066C16.9797 24.2889 18.7256 27.8634 21.4937 30.3066C18.7256 32.7497 16.9797 36.3243 16.9797 40.3066C16.9797 44.2889 18.7256 47.8636 21.4937 50.3066C18.7256 52.7496 16.9797 56.3243 16.9797 60.3066C16.9797 67.6703 22.9493 73.6399 30.3131 73.6399C37.6767 73.6399 43.6464 67.6703 43.6464 60.3066V53.6399V51.8563C45.6074 52.9906 47.8844 53.6399 50.3131 53.6399C57.6767 53.6399 63.6464 47.6703 63.6464 40.3066C63.6464 36.3243 61.9004 32.7498 59.1324 30.3066C61.9004 27.8635 63.6464 24.2889 63.6464 20.3066C63.6464 12.9428 57.6767 6.97327 50.3131 6.97327H43.6464H40.3131H36.9797ZM43.6464 13.6399V26.9733H50.3131C53.9951 26.9733 56.9797 23.9885 56.9797 20.3066C56.9797 16.6247 53.9951 13.6399 50.3131 13.6399H43.6464ZM36.9797 33.6399H30.3131C26.6312 33.6399 23.6464 36.6246 23.6464 40.3066C23.6464 43.9886 26.6312 46.9733 30.3131 46.9733H36.9797V40.3066V33.6399ZM30.3131 26.9733H36.9797V13.6399H30.3131C26.6312 13.6399 23.6464 16.6247 23.6464 20.3066C23.6464 23.9885 26.6312 26.9733 30.3131 26.9733ZM43.6464 40.3066C43.6464 43.9886 46.6311 46.9733 50.3131 46.9733C53.9951 46.9733 56.9797 43.9886 56.9797 40.3066C56.9797 36.6246 53.9951 33.6399 50.3131 33.6399C46.6311 33.6399 43.6464 36.6246 43.6464 40.3066ZM30.3131 53.6399H36.9797V60.3066C36.9797 63.9886 33.9951 66.9733 30.3131 66.9733C26.6312 66.9733 23.6464 63.9886 23.6464 60.3066C23.6464 56.6246 26.6312 53.6399 30.3131 53.6399Z" fill="#8D8144"/>
</svg>
