<svg width="66" height="66" viewBox="0 0 66 66" fill="none" xmlns="http://www.w3.org/2000/svg">
<g clip-path="url(#clip0_14_8)">
<path fill-rule="evenodd" clip-rule="evenodd" d="M33.2046 0.397705C51.1543 0.397705 65.7046 15.315 65.7046 33.7197C65.7046 48.439 56.4031 60.9256 43.4973 65.3358C41.8496 65.6641 41.2646 64.6235 41.2646 63.7362C41.2646 62.6377 41.3036 59.0498 41.3036 54.5908C41.3036 51.4838 40.2636 49.456 39.0969 48.4225C46.3346 47.597 53.9396 44.779 53.9396 31.9805C53.9396 28.3405 52.6786 25.3701 50.5921 23.0366C50.9301 22.1949 52.0448 18.8056 50.2736 14.2166C50.2736 14.2166 47.5501 13.3237 41.3458 17.6332C38.7491 16.8954 35.9671 16.5242 33.2046 16.5112C30.4421 16.5242 27.6633 16.8954 25.0698 17.6332C18.8591 13.3237 16.1291 14.2166 16.1291 14.2166C14.3643 18.8056 15.4791 22.1949 15.8138 23.0366C13.7371 25.3701 12.4664 28.3405 12.4664 31.9805C12.4664 44.7465 20.0551 47.6077 27.2733 48.4495C26.3438 49.2815 25.5021 50.7492 25.2096 52.9039C23.3571 53.7554 18.6511 55.2291 15.7521 50.1363C15.7521 50.1363 14.0328 46.9347 10.7698 46.7007C10.7698 46.7007 7.60109 46.6586 10.5488 48.7256C10.5488 48.7256 12.6776 49.7493 14.1563 53.6006C14.1563 53.6006 16.0641 59.548 25.1056 57.533C25.1219 60.3182 25.1511 62.9432 25.1511 63.7362C25.1511 64.617 24.5531 65.6477 22.9313 65.339C10.0158 60.9352 0.70459 48.4422 0.70459 33.7197C0.70459 15.315 15.2581 0.397705 33.2046 0.397705Z" fill="#8D8144"/>
</g>
<defs>
<clipPath id="clip0_14_8">
<rect width="65" height="65" fill="white" transform="translate(0.70459 0.397705)"/>
</clipPath>
</defs>
</svg>
