<svg width="66" height="66" viewBox="0 0 66 66" fill="none" xmlns="http://www.w3.org/2000/svg">
<g clip-path="url(#clip0_14_13)">
<path fill-rule="evenodd" clip-rule="evenodd" d="M50.5188 20.3513H50.4956H22.4937L23.1633 26.8513H49.8525C49.4613 32.5453 48.2778 44.6088 47.8436 50.098L32.8531 54.3176V54.3303L32.8199 54.3462L17.8195 49.0681L16.7918 36.6013H24.1445L24.665 43.306L32.8332 46.3513H32.8531L41.008 43.4266L41.8467 33.3513H16.4637C16.341 32.0481 14.7631 15.1253 14.4879 13.8513H51.1751C50.9696 15.9963 50.7608 18.1998 50.5188 20.3513ZM3.60474 0.851318L8.92864 59.8322L32.8199 65.8513L56.7742 59.7115L62.1047 0.851318H3.60474Z" fill="#8D8144"/>
</g>
<defs>
<clipPath id="clip0_14_13">
<rect width="65" height="65" fill="white" transform="translate(0.354736 0.851318)"/>
</clipPath>
</defs>
</svg>
