<svg width="66" height="66" viewBox="0 0 66 66" fill="none" xmlns="http://www.w3.org/2000/svg">
<g clip-path="url(#clip0_14_21)">
<path fill-rule="evenodd" clip-rule="evenodd" d="M0.761077 0.638306C0.688714 0.648843 0.694046 0.73606 0.699251 0.823403C0.699251 22.3633 0.699251 43.8999 0.699251 65.4392C22.2005 65.5833 43.9659 65.4598 65.5696 65.5009C65.5696 43.8797 65.5696 22.2594 65.5696 0.638306C43.9675 0.638306 22.3633 0.638306 0.761077 0.638306ZM33.6273 57.9788C32.1265 59.492 29.7581 60.3831 26.8444 60.3831C22.0655 60.3831 19.4121 58.0548 17.7185 54.8338C19.3488 53.7928 21.0149 52.7871 22.7133 51.813C23.406 53.7505 25.7457 55.9288 28.3859 54.5878C30.0596 53.7373 29.8663 51.1588 29.8663 48.3602C29.8663 42.5492 29.8663 35.8455 29.8663 30.6031C29.861 30.5157 29.8558 30.4285 29.9275 30.418C31.9216 30.418 33.9155 30.418 35.9091 30.418C35.9091 35.0883 35.9091 40.3713 35.9091 45.3386C35.9091 50.7466 36.2955 55.2901 33.6273 57.9788ZM60.3894 52.6151C60.05 57.6785 55.9152 60.3672 50.3386 60.3831C44.8717 60.3988 41.3726 57.9693 39.2387 54.2173C40.7729 53.1615 42.5113 52.3109 44.1105 51.32C45.3902 53.3209 47.6064 55.2441 50.8935 54.9575C52.9413 54.779 55.3185 53.1097 53.9765 50.5799C53.3256 49.3535 51.7528 48.7306 50.3386 48.1138C45.8505 46.1557 40.585 44.3597 41.0886 37.3238C41.2571 34.9734 42.3394 33.3216 43.7405 32.1446C45.1765 30.9386 47.0997 30.1303 49.6602 30.0485C54.3104 29.8996 56.8614 31.9681 58.6014 34.858C57.1206 35.9868 55.4893 36.9664 53.8532 37.9406C53.3164 36.2908 50.7246 34.6832 48.5502 35.6593C47.5613 36.1028 46.6728 37.4063 47.1938 38.9886C47.6584 40.3996 49.5537 41.172 51.0784 41.8252C55.6934 43.8006 60.8509 45.7312 60.3894 52.6151Z" fill="#8D8144"/>
</g>
<defs>
<clipPath id="clip0_14_21">
<rect width="65" height="65" fill="white" transform="translate(0.633057 0.574829)"/>
</clipPath>
</defs>
</svg>
