<svg width="81" height="81" viewBox="0 0 81 81" fill="none" xmlns="http://www.w3.org/2000/svg">
<g clip-path="url(#clip0_14_2)">
<path d="M40.0247 34.3659C41.2547 34.366 42.4572 34.7299 43.4808 35.412C44.5043 36.094 45.3033 37.0636 45.7769 38.1987C46.2506 39.3338 46.3779 40.5837 46.1427 41.791C45.9076 42.9983 45.3205 44.109 44.4554 44.9834C43.5903 45.8577 42.4859 46.4566 41.2812 46.7046C40.0764 46.9526 38.8253 46.8386 37.6852 46.377C36.5451 45.9154 35.567 45.1269 34.8742 44.1106C34.1813 43.0944 33.8046 41.8958 33.7914 40.6659C33.787 39.843 33.9448 39.0272 34.2556 38.2652C34.5665 37.5032 35.0245 36.8099 35.6033 36.2249C36.1821 35.6399 36.8705 35.1746 37.6291 34.8557C38.3877 34.5367 39.2018 34.3703 40.0247 34.3659ZM24.5914 67.3326C26.6914 68.5992 31.2581 66.6659 36.5914 61.6659C34.8088 59.6402 33.129 57.5265 31.5581 55.3326C28.8695 55.0315 26.199 54.5864 23.5581 53.9992C21.8581 61.1326 22.4914 66.0326 24.5914 67.3326ZM26.9581 48.1992L25.9914 46.4992C25.6146 47.4355 25.2918 48.3926 25.0247 49.3659C25.9247 49.5659 26.9247 49.7326 27.9581 49.8992L26.9581 48.1992ZM48.7581 45.6659L51.4581 40.6659L48.7581 35.6659C47.7581 33.8992 46.6914 32.3326 45.7247 30.7659C43.9247 30.6659 42.0247 30.6659 40.0247 30.6659C38.0247 30.6659 36.1247 30.6659 34.3247 30.6659C33.3581 32.2326 32.2914 33.7992 31.2914 35.5659L28.5914 40.6659L31.2914 45.6659C32.2914 47.4326 33.3581 48.9992 34.3247 50.5659C36.1247 50.5659 38.0247 50.5659 40.0247 50.5659C42.0247 50.5659 43.9247 50.5659 45.7247 50.5659C46.6914 48.9992 47.7581 47.4326 48.7581 45.6659ZM40.0247 23.2659C39.3914 23.9992 38.7247 24.7659 38.0581 25.6659H41.9914C41.3247 24.7659 40.6581 23.9992 40.0247 23.2659ZM40.0247 58.0659C40.6581 57.3326 41.3247 56.5659 41.9914 55.6659H38.0581C38.7247 56.5659 39.3914 57.3326 40.0247 58.0659ZM55.4247 13.9992C53.3581 12.7326 48.7581 14.6659 43.4581 19.6659C45.2406 21.6916 46.9205 23.8053 48.4914 25.9992C51.1776 26.2563 53.848 26.6569 56.4914 27.1992C58.1914 20.0659 57.5581 15.1659 55.4247 13.8659M53.0914 32.9992L54.0581 34.6992C54.4349 33.763 54.7576 32.8058 55.0247 31.8326C54.1247 31.6326 53.1247 31.4659 52.0914 31.2992L53.0914 32.9992ZM57.9247 9.66591C62.8247 12.4659 63.3581 19.8326 61.2581 28.4326C69.7247 30.9326 75.8247 35.0992 75.8247 40.6992C75.8247 46.2992 69.7247 50.4659 61.2581 52.9659C63.3247 61.5659 62.7914 68.9326 57.9247 71.7326C53.0581 74.5326 46.4247 71.3326 40.0247 65.2326C33.6247 71.3326 26.9914 74.5326 22.0914 71.7326C17.1914 68.9326 16.6914 61.7326 18.7581 52.9659C10.2914 50.4659 4.19141 46.2992 4.19141 40.6992C4.19141 35.0992 10.2914 30.8992 18.7581 28.3992C16.6914 19.7992 17.2247 12.4326 22.0914 9.63257C26.9581 6.83257 33.6247 10.0326 40.0247 16.1326C46.4247 10.0326 53.0581 6.83257 57.9247 9.63257M56.9581 40.6659C58.1157 43.1197 59.1395 45.6345 60.0247 48.1992C67.0247 46.0992 70.9581 43.0992 70.9581 40.6659C70.9581 38.2326 66.9247 35.2326 60.0247 33.1326C59.1395 35.6973 58.1157 38.2121 56.9581 40.6659ZM23.0914 40.6659C21.9337 38.2121 20.91 35.6973 20.0247 33.1326C13.0247 35.2326 9.09141 38.2326 9.09141 40.6659C9.09141 43.0992 13.1247 46.0992 20.0247 48.1992C20.91 45.6345 21.9337 43.1197 23.0914 40.6659ZM53.0914 48.1992L52.0914 49.8992C53.1247 49.8992 54.1247 49.5659 55.0247 49.3659C54.7576 48.3926 54.4349 47.4355 54.0581 46.4992L53.0914 48.1992ZM43.3581 61.6659C48.6581 66.6659 53.3581 68.5992 55.3247 67.3326C57.2914 66.0659 58.0914 61.2659 56.3914 53.9992C53.748 54.5416 51.0776 54.9422 48.3914 55.1992C46.8242 57.4386 45.1442 59.5969 43.3581 61.6659ZM26.9581 33.1326L27.9581 31.4326C26.9247 31.4326 25.9247 31.7659 25.0247 31.9659C25.2918 32.9392 25.6146 33.8963 25.9914 34.8326L26.9581 33.1326ZM36.6914 19.6659C31.2914 14.6659 26.6914 12.7326 24.5914 13.9992C22.4914 15.2659 21.8581 20.0659 23.5581 27.3326C26.2014 26.7902 28.8719 26.3896 31.5581 26.1326C33.1578 23.8909 34.8711 21.7325 36.6914 19.6659Z" fill="#8D8144"/>
</g>
<defs>
<clipPath id="clip0_14_2">
<rect width="80" height="80" fill="white" transform="translate(0.0246582 0.665894)"/>
</clipPath>
</defs>
</svg>
