<svg width="81" height="81" viewBox="0 0 81 81" fill="none" xmlns="http://www.w3.org/2000/svg">
<g clip-path="url(#clip0_14_5)">
<path d="M40.6688 7.65283C47.2615 7.65283 53.7062 9.6078 59.1878 13.2705C64.6694 16.9332 68.9419 22.1392 71.4648 28.23C73.9877 34.3209 74.6478 41.0231 73.3616 47.4892C72.0755 53.9552 68.9008 59.8946 64.239 64.5564C59.5773 69.2181 53.6378 72.3928 47.1718 73.679C40.7058 74.9652 34.0035 74.3051 27.9127 71.7821C21.8218 69.2592 16.6158 64.9868 12.9531 59.5052C9.29042 54.0235 7.33545 47.5789 7.33545 40.9862C7.33545 32.1456 10.8473 23.6672 17.0986 17.4159C23.3498 11.1647 31.8282 7.65283 40.6688 7.65283ZM34.0021 52.0862C34.5034 53.7151 34.5034 55.4572 34.0021 57.0862C34.0021 57.2528 34.0021 57.4195 33.8021 57.6528C33.6021 57.8862 33.8021 57.8862 33.5688 58.0528C33.1829 58.8759 32.665 59.6303 32.0354 60.2862C30.1021 62.4195 27.3355 63.2195 26.2355 62.5528C25.1355 61.8862 25.6688 58.8195 27.8688 56.4528C29.5916 54.7533 31.5714 53.3359 33.7355 52.2528L34.0021 52.0862ZM61.5688 22.0862C60.0688 16.1528 50.2355 14.2195 40.9688 17.5195C35.159 19.4205 29.7794 22.4445 25.1355 26.4195C20.0355 31.2195 19.2021 35.3862 19.5354 37.1195C20.6688 43.2528 29.1355 47.2862 32.6021 50.2528C31.6021 50.7528 24.1355 54.5195 22.3354 58.3862C21.5743 59.5939 21.3223 61.0538 21.6347 62.4468C21.947 63.8398 22.7982 65.0524 24.0021 65.8195C26.1398 66.3352 28.3854 66.1689 30.4238 65.344C32.4623 64.519 34.1914 63.0768 35.3688 61.2195C36.3423 59.7202 36.9518 58.014 37.1486 56.2372C37.3454 54.4604 37.124 52.6622 36.5021 50.9862C38.1729 50.5955 39.8998 50.5052 41.6021 50.7195C47.4688 51.4195 48.6021 55.0528 48.2688 56.5862C48.1695 57.1307 47.9544 57.6477 47.6382 58.102C47.3219 58.5563 46.9117 58.9374 46.4354 59.2195C46.0354 59.4528 45.9021 59.5528 45.9355 59.7528C45.9688 59.9528 46.1688 60.0195 46.5021 59.9528C47.4115 59.7055 48.2212 59.181 48.8186 58.4522C49.416 57.7233 49.7715 56.8264 49.8355 55.8862C49.8355 52.2862 46.5021 48.2862 40.4688 48.3862C38.707 48.345 36.9504 48.5927 35.2688 49.1195L35.0021 48.8195C31.2355 44.8195 24.3021 42.1528 24.6021 36.5862C24.6021 34.6195 25.3688 29.4862 37.9355 23.2528C48.2021 18.1195 56.4355 19.5195 57.9355 22.6862C59.9688 27.1195 53.5355 35.4195 42.8688 36.6195C41.7008 36.8405 40.4987 36.8028 39.3468 36.5091C38.195 36.2154 37.1216 35.6728 36.2021 34.9195C35.6355 34.3528 35.5688 34.2528 35.3688 34.3528C35.1688 34.4528 35.3688 35.1195 35.3688 35.4528C36.2164 36.9128 37.5864 37.9969 39.2021 38.4862C43.4062 39.3935 47.7889 38.9622 51.7355 37.2528C58.0021 34.7195 63.0688 27.6528 61.5688 21.9195V22.0862Z" fill="#8D8144"/>
</g>
<defs>
<clipPath id="clip0_14_5">
<rect width="80" height="80" fill="white" transform="translate(0.668701 0.986206)"/>
</clipPath>
</defs>
</svg>
