<svg width="40" height="30" viewBox="0 0 40 30" fill="none" xmlns="http://www.w3.org/2000/svg">
<path d="M11.7197 30C9.28663 30 7.04208 29.6348 4.986 28.9045C2.96418 28.1461 1.30218 27.0787 0 25.7022L4.62618 21.1517C5.61995 22.2191 6.66513 23.0337 7.7617 23.5955C8.85828 24.1292 10.0405 24.3961 11.3084 24.3961C14.701 24.3961 16.3972 22.7669 16.3972 19.5084V5.47753H3.75235V0H24.673V19.1292C24.673 22.7809 23.5764 25.5056 21.3832 27.3034C19.1901 29.1011 15.9689 30 11.7197 30Z" fill="#8D8144"/>
<path d="M35.014 29.8315C33.6433 29.8315 32.461 29.4522 31.4673 28.6938C30.5078 27.9073 30.028 26.9101 30.028 25.7022C30.028 24.4944 30.5078 23.5253 31.4673 22.7949C32.461 22.0365 33.6433 21.6573 35.014 21.6573C36.419 21.6573 37.6012 22.0365 38.5607 22.7949C39.5202 23.5253 40 24.4944 40 25.7022C40 26.9101 39.5202 27.9073 38.5607 28.6938C37.6012 29.4522 36.419 29.8315 35.014 29.8315Z" fill="#8D8144"/>
</svg>
