<svg width="30" height="30" viewBox="0 0 30 30" fill="none" xmlns="http://www.w3.org/2000/svg">
<path d="M24.8627 4.0625H5.1377C4.47465 4.0625 3.83877 4.35086 3.36993 4.86415C2.90109 5.37743 2.6377 6.0736 2.6377 6.7995V19.1981C2.6377 19.5575 2.70236 19.9134 2.828 20.2455C2.95363 20.5776 3.13778 20.8793 3.36993 21.1335C3.60207 21.3876 3.87767 21.5892 4.18099 21.7268C4.4843 21.8643 4.80939 21.9351 5.1377 21.9351H7.1877L10.0752 27.4091C10.1678 27.5884 10.3022 27.7377 10.4647 27.8415C10.6272 27.9453 10.812 28 11.0002 28C11.1884 28 11.3732 27.9453 11.5357 27.8415C11.6982 27.7377 11.8326 27.5884 11.9252 27.4091L14.8252 21.9351H24.8252C25.4882 21.9351 26.1241 21.6467 26.593 21.1335C27.0618 20.6202 27.3252 19.924 27.3252 19.1981V6.7995C27.3253 6.08066 27.067 5.39064 26.6063 4.87852C26.1455 4.3664 25.5192 4.07328 24.8627 4.0625Z" stroke="#675D28" stroke-width="2" stroke-linecap="round" stroke-linejoin="round"/>
<path d="M6.2627 10.3712H13.7627" stroke="#675D28" stroke-width="2" stroke-linecap="round" stroke-linejoin="round"/>
<path d="M6.2627 15.8452H22.5127" stroke="#675D28" stroke-width="2" stroke-linecap="round" stroke-linejoin="round"/>
</svg>
