<svg width="33" height="34" viewBox="0 0 33 34" fill="none" xmlns="http://www.w3.org/2000/svg">
<path d="M26.8125 28.6875H6.1875C5.05312 28.6875 4.125 27.7313 4.125 26.5625V12.75C4.125 11.5812 5.05312 10.625 6.1875 10.625H26.8125C27.9469 10.625 28.875 11.5812 28.875 12.75V26.5625C28.875 27.7313 27.9469 28.6875 26.8125 28.6875Z" stroke="#675D28" stroke-width="2" stroke-miterlimit="10" stroke-linecap="round" stroke-linejoin="round"/>
<path d="M23.3063 19.125H9.69375C6.6 19.125 4.125 16.575 4.125 13.3875V12.75C4.125 11.5812 5.05312 10.625 6.1875 10.625H26.8125C27.9469 10.625 28.875 11.5812 28.875 12.75V13.3875C28.875 16.575 26.4 19.125 23.3063 19.125Z" stroke="#675D28" stroke-width="2" stroke-miterlimit="10" stroke-linecap="round" stroke-linejoin="round"/>
<path d="M10.3125 21.25V19.125" stroke="#675D28" stroke-width="2" stroke-miterlimit="10" stroke-linecap="round" stroke-linejoin="round"/>
<path d="M22.6875 21.25V19.125" stroke="#675D28" stroke-width="2" stroke-miterlimit="10" stroke-linecap="round" stroke-linejoin="round"/>
<path d="M9.59082 10.625C10.5189 7.54375 13.2002 5.3125 16.5002 5.3125C19.8002 5.3125 22.4814 7.54375 23.4096 10.625" stroke="#675D28" stroke-width="2" stroke-miterlimit="10" stroke-linecap="round" stroke-linejoin="round"/>
</svg>
