<svg width="28" height="26" viewBox="0 0 28 26" fill="none" xmlns="http://www.w3.org/2000/svg">
<path d="M18.8263 4.04862C17.9595 3.89341 17.1794 4.12622 16.4859 4.51423C15.8792 4.82464 15.1857 4.82464 14.5789 4.51423C13.8855 4.12622 13.1053 3.89341 12.2385 4.04862C10.1581 4.28142 8.77123 6.29909 9.03128 8.39437C9.29133 10.4896 11.5451 14.2922 13.5387 13.9818C13.7988 13.9042 14.0588 13.8266 14.3189 13.6714C15.0123 13.2057 16.0525 13.2057 16.6593 13.6714C16.9193 13.8266 17.1794 13.9818 17.4394 13.9818C19.4331 14.2922 21.6869 10.5672 21.9469 8.39437C22.2936 6.29909 20.9067 4.28142 18.8263 4.04862Z" stroke="#675D28" stroke-width="2" stroke-miterlimit="10" stroke-linecap="round" stroke-linejoin="round"/>
<path d="M13 1L13.1739 1.06667C14.3043 1.53333 15 2.2 15 3" stroke="#675D28" stroke-width="2" stroke-miterlimit="10" stroke-linecap="round" stroke-linejoin="round"/>
<path d="M27 19H9.91667C8.33333 19 7 17.8571 7 16.5C7 15.1429 8.33333 14 9.91667 14H27" stroke="#675D28" stroke-width="2" stroke-miterlimit="10" stroke-linecap="round" stroke-linejoin="round"/>
<path d="M26 14C24.6667 15.5714 24.6667 17.4286 26 19" stroke="#675D28" stroke-width="2" stroke-miterlimit="10" stroke-linecap="round" stroke-linejoin="round"/>
<path d="M22 25H4.91667C3.33333 25 2 23.8571 2 22.5C2 21.1429 3.33333 20 4.91667 20H22" stroke="#675D28" stroke-width="2" stroke-miterlimit="10" stroke-linecap="round" stroke-linejoin="round"/>
<path d="M21 20C19.6667 21.5714 19.6667 23.4286 21 25" stroke="#675D28" stroke-width="2" stroke-miterlimit="10" stroke-linecap="round" stroke-linejoin="round"/>
</svg>
