<svg width="28" height="28" viewBox="0 0 28 28" fill="none" xmlns="http://www.w3.org/2000/svg">
<path d="M14 12.8333C15.1537 12.8333 16.2815 12.4912 17.2408 11.8502C18.2001 11.2092 18.9478 10.2982 19.3893 9.23228C19.8308 8.16638 19.9463 6.99349 19.7212 5.86194C19.4962 4.73038 18.9406 3.69098 18.1248 2.87517C17.309 2.05937 16.2696 1.50379 15.138 1.27871C14.0065 1.05363 12.8336 1.16915 11.7677 1.61066C10.7018 2.05218 9.79074 2.79985 9.14976 3.75914C8.50879 4.71842 8.16667 5.84624 8.16667 6.99996C8.16852 8.54649 8.7837 10.0291 9.87726 11.1227C10.9708 12.2163 12.4535 12.8314 14 12.8333ZM14 3.49996C14.6922 3.49996 15.3689 3.70523 15.9445 4.08982C16.5201 4.4744 16.9687 5.02103 17.2336 5.66057C17.4985 6.30011 17.5678 7.00385 17.4327 7.68278C17.2977 8.36171 16.9644 8.98535 16.4749 9.47484C15.9854 9.96432 15.3617 10.2977 14.6828 10.4327C14.0039 10.5678 13.3001 10.4984 12.6606 10.2335C12.0211 9.96863 11.4744 9.52003 11.0899 8.94446C10.7053 8.36889 10.5 7.6922 10.5 6.99996C10.5 6.0717 10.8687 5.18147 11.5251 4.52509C12.1815 3.86871 13.0717 3.49996 14 3.49996ZM3.5 25.6666V21C3.50185 19.4534 4.11703 17.9708 5.21059 16.8772C6.30415 15.7837 7.78681 15.1685 9.33333 15.1666H18.6667C20.2132 15.1685 21.6959 15.7837 22.7894 16.8772C23.883 17.9708 24.4981 19.4534 24.5 21V25.6666C24.5 25.976 24.3771 26.2728 24.1583 26.4916C23.9395 26.7104 23.6428 26.8333 23.3333 26.8333C23.0239 26.8333 22.7272 26.7104 22.5084 26.4916C22.2896 26.2728 22.1667 25.976 22.1667 25.6666V21C22.1667 20.0717 21.7979 19.1815 21.1415 18.5251C20.4852 17.8687 19.5949 17.5 18.6667 17.5H9.33333C8.40508 17.5 7.51484 17.8687 6.85846 18.5251C6.20208 19.1815 5.83333 20.0717 5.83333 21V25.6666C5.83333 25.976 5.71042 26.2728 5.49162 26.4916C5.27283 26.7104 4.97609 26.8333 4.66667 26.8333C4.35725 26.8333 4.0605 26.7104 3.84171 26.4916C3.62292 26.2728 3.5 25.976 3.5 25.6666Z" fill="#675D28"/>
</svg>
