<svg width="30" height="26" viewBox="0 0 30 26" fill="none" xmlns="http://www.w3.org/2000/svg">
<path d="M11.6148 22.375V19.7091L11.6569 17.8145C11.7074 17.2251 11.983 16.6696 12.4363 16.2396C12.443 16.2332 12.4497 16.227 12.4564 16.2207C12.4739 16.2045 12.4624 16.1782 12.4363 16.1755C9.40693 15.8604 6.25063 14.7945 6.25063 10.1536C6.23088 9.01064 6.67838 7.90258 7.50546 7.03349C7.5344 7.00309 7.56379 6.97298 7.59365 6.94318C7.63251 6.90438 7.64523 6.85179 7.62743 6.80348C7.62634 6.80055 7.62526 6.79762 7.62419 6.79468C7.604 6.73948 7.58505 6.68402 7.56735 6.62834C7.26331 5.6716 7.32869 4.64962 7.75659 3.72727C7.75974 3.72046 7.76293 3.71366 7.76613 3.70685C7.7821 3.67291 7.81564 3.64696 7.85873 3.64055C8.12736 3.60064 9.21295 3.54723 11.2912 4.74319C11.3559 4.78041 11.4216 4.81884 11.4882 4.85852C11.5363 4.88717 11.5974 4.89595 11.6543 4.88246L11.6597 4.88118C11.7712 4.85475 11.8831 4.82968 11.9952 4.80594C13.9708 4.38777 16.0293 4.38777 18.0048 4.80594C18.1111 4.82844 18.2171 4.85216 18.323 4.87707L18.3299 4.87871C18.3968 4.8945 18.4686 4.88419 18.5252 4.85055C18.5872 4.81369 18.6484 4.77791 18.7088 4.74319C20.7821 3.54975 21.8617 3.60042 22.1316 3.6403C22.1755 3.64679 22.2097 3.67321 22.2262 3.70777C22.2284 3.71222 22.2304 3.71666 22.2325 3.7211C22.6676 4.64386 22.7367 5.6689 22.4325 6.62834C22.4144 6.68553 22.3949 6.7425 22.3741 6.7992C22.3554 6.85019 22.3689 6.90565 22.4097 6.94661L22.4136 6.95047C22.441 6.97789 22.468 7.00556 22.4945 7.03349C23.3216 7.90258 23.7691 9.01064 23.7494 10.1536C23.7494 14.8198 20.5706 15.8578 17.5268 16.1406C17.5091 16.1422 17.5013 16.1598 17.5131 16.1707C17.5176 16.1749 17.5223 16.1791 17.5268 16.1832C17.8339 16.4683 18.0721 16.8067 18.2264 17.1774C18.3876 17.565 18.4532 17.9789 18.4189 18.391V22.375" stroke="#3F370E" stroke-width="3" stroke-linecap="round" stroke-linejoin="round"/>
<path d="M5 18.2083C5.46144 18.2627 5.90199 18.4044 6.28831 18.6223C6.67463 18.8403 6.99658 19.1289 7.22975 19.4664C7.42789 19.7668 7.69501 20.0316 8.0158 20.2454C8.33659 20.4593 8.70474 20.6181 9.09911 20.7127C9.49348 20.8074 9.9063 20.836 10.3139 20.7968C10.7215 20.7577 11.1158 20.6517 11.4743 20.4848" stroke="#3F370E" stroke-width="3" stroke-linecap="round" stroke-linejoin="round"/>
</svg>
