<svg width="40" height="40" viewBox="0 0 40 40" fill="none" xmlns="http://www.w3.org/2000/svg">
<path fill-rule="evenodd" clip-rule="evenodd" d="M3.33325 10C3.33325 6.31811 6.31802 3.33334 9.99992 3.33334H29.9999C33.6818 3.33334 36.6666 6.31811 36.6666 10V30C36.6666 33.6818 33.6818 36.6667 29.9999 36.6667H9.99992C6.31802 36.6667 3.33325 33.6818 3.33325 30V10ZM9.99992 6.66668C8.15897 6.66668 6.66659 8.15906 6.66659 10V30C6.66659 31.841 8.15897 33.3333 9.99992 33.3333H29.9999C31.8409 33.3333 33.3333 31.841 33.3333 30V10C33.3333 8.15906 31.8409 6.66668 29.9999 6.66668H9.99992ZM19.9999 15C17.2384 15 14.9999 17.2385 14.9999 20C14.9999 22.7615 17.2384 25 19.9999 25C22.7614 25 24.9999 22.7615 24.9999 20C24.9999 17.2385 22.7614 15 19.9999 15ZM11.6666 20C11.6666 15.3976 15.3976 11.6667 19.9999 11.6667C24.6023 11.6667 28.3333 15.3976 28.3333 20C28.3333 24.6023 24.6023 28.3333 19.9999 28.3333C15.3976 28.3333 11.6666 24.6023 11.6666 20ZM29.1666 13.3333C30.5473 13.3333 31.6666 12.2141 31.6666 10.8333C31.6666 9.45263 30.5473 8.33334 29.1666 8.33334C27.7859 8.33334 26.6666 9.45263 26.6666 10.8333C26.6666 12.2141 27.7859 13.3333 29.1666 13.3333Z" fill="#8D8144"/>
</svg>
