<svg width="26" height="20" viewBox="0 0 26 20" fill="none" xmlns="http://www.w3.org/2000/svg">
<g clip-path="url(#clip0_6_112)">
<path d="M23.3235 7.33333V2M23.3235 2H16.3235M23.3235 2L13.9902 9.11111M10.4902 3.77778H7.92349C5.9633 3.77778 4.98321 3.77778 4.23452 4.06843C3.57595 4.32409 3.04052 4.73204 2.70496 5.2338C2.32349 5.80423 2.32349 6.55097 2.32349 8.04444V13.7333C2.32349 15.2268 2.32349 15.9735 2.70496 16.544C3.04052 17.0458 3.57595 17.4537 4.23452 17.7093C4.98321 18 5.9633 18 7.92349 18H15.3902C17.3504 18 18.3304 18 19.0792 17.7093C19.7377 17.4537 20.2731 17.0458 20.6087 16.544C20.9902 15.9735 20.9902 15.2268 20.9902 13.7333V11.7778" stroke="#3F370E" stroke-width="3" stroke-linecap="round" stroke-linejoin="round"/>
</g>
<defs>
<clipPath id="clip0_6_112">
<rect width="25" height="19" fill="white" transform="translate(0.323486 0.5)"/>
</clipPath>
</defs>
</svg>
