<svg width="40" height="40" viewBox="0 0 40 40" fill="none" xmlns="http://www.w3.org/2000/svg">
<path fill-rule="evenodd" clip-rule="evenodd" d="M9.99992 3.33334C6.31802 3.33334 3.33325 6.31811 3.33325 10V30C3.33325 33.6818 6.31802 36.6667 9.99992 36.6667H29.9999C33.6818 36.6667 36.6666 33.6818 36.6666 30V10C36.6666 6.31811 33.6818 3.33334 29.9999 3.33334H9.99992ZM6.66659 10C6.66659 8.15906 8.15897 6.66668 9.99992 6.66668H29.9999C31.8409 6.66668 33.3333 8.15906 33.3333 10V30C33.3333 31.841 31.8409 33.3333 29.9999 33.3333H9.99992C8.15897 33.3333 6.66659 31.841 6.66659 30V10ZM14.9999 18.3333C14.9999 17.4128 14.2537 16.6667 13.3333 16.6667C12.4128 16.6667 11.6666 17.4128 11.6666 18.3333V28.3333C11.6666 29.2538 12.4128 30 13.3333 30C14.2537 30 14.9999 29.2538 14.9999 28.3333V18.3333ZM15.8333 12.5C15.8333 13.8807 14.714 15 13.3333 15C11.9525 15 10.8333 13.8807 10.8333 12.5C10.8333 11.1193 11.9525 10 13.3333 10C14.714 10 15.8333 11.1193 15.8333 12.5ZM19.9999 16.6667C20.5658 16.6667 21.0658 16.9487 21.3671 17.3798C22.2214 16.917 23.1726 16.6667 24.1666 16.6667C27.7656 16.6667 29.9999 19.8763 29.9999 22.619V22.6317V22.6442V22.6568V22.6695V22.6822V22.695V22.7077V22.7205V22.7333V22.7462V22.7592V22.772V22.785V22.798V22.811V22.824V22.837V22.8502V22.8633V22.8763V22.8897V22.9028V22.916V22.9293V22.9425V22.9558V22.9692V22.9827V22.996V23.0095V23.0228V23.0363V23.0498V23.0633V23.077V23.0905V23.1042V23.1177V23.1313V23.145V23.1588V23.1725V23.1862V23.2V23.2138V23.2275V23.2413V23.2553V23.2692V23.283V23.297V23.311V23.3248V23.3388V23.3528V23.3668V23.381V23.395V23.4092V23.4232V23.4373V23.4515V23.4657V23.4798V23.494V23.5082V23.5225V23.5367V23.551V23.5653V23.5797V23.5938V23.6083V23.6227V23.637V23.6513V23.6658V23.6802V23.6947V23.709V23.7235V23.738V23.7525V23.767V23.7815V23.796V23.8107V23.8252V23.8398V23.8543V23.869V23.8835V23.8982V23.9128V23.9275V23.9422V23.9568V23.9715V23.9862V24.0008V24.0155V24.0303V24.045V24.0598V24.0745V24.0893V24.104V24.1188V24.1337V24.1485V24.1632V24.178V24.1928V24.2077V24.2225V24.2373V24.2522V24.267V24.282V24.2968V24.3117V24.3265V24.3415V24.3563V24.3712V24.3862V24.401V24.416V24.4308V24.4457V24.4607V24.4757V24.4905V24.5055V24.5203V24.5353V24.5503V24.5652V24.5802V24.595V24.61V24.625V24.6398V24.6548V24.6698V24.6847V24.6997V24.7147V24.7297V24.7445V24.7595V24.7745V24.7893V24.8043V24.8193V24.8342V24.8492V24.864V24.879V24.8938V24.9088V24.9238V24.9387V24.9537V24.9685V24.9833V24.9983V25.0132V25.0282V25.043V25.0578V25.0727V25.0877V25.1025V25.1173V25.1322V25.147V25.1618V25.1767V25.1915V25.2063V25.2212V25.236V25.2507V25.2655V25.2803V25.295V25.3098V25.3245V25.3393V25.354V25.3688V25.3835V25.3982V25.4128V25.4275V25.4422V25.4568V25.4715V25.4862V25.5008V25.5153V25.53V25.5445V25.5592V25.5737V25.5882V25.6027V25.6172V25.6317V25.6462V25.6607V25.6752V25.6897V25.704V25.7185V25.7328V25.7472V25.7617V25.776V25.7903V25.8045V25.8188V25.8332V25.8475V25.8617V25.8758V25.8902V25.9043V25.9185V25.9327V25.9468V25.9608V25.975V25.989V26.0032V26.0172V26.0312V26.0452V26.0592V26.0732V26.087V26.101V26.1148V26.1287V26.1425V26.1563V26.1702V26.184V26.1977V26.2115V26.2252V26.2388V26.2525V26.2662V26.2798V26.2933V26.307V26.3205V26.334V26.3475V26.361V26.3743V26.3878V26.4012V26.4145V26.4278V26.4412V26.4545V26.4677V26.4808V26.4942V26.5073V26.5203V26.5335V26.5467V26.5597V26.5727V26.5857V26.5987V26.6115V26.6245V26.6373V26.6502V26.663V26.6758V26.6885V26.7013V26.714V26.7267V26.7392V26.7518V26.7643V26.7768V26.7893V26.8018V26.8143V26.8267V26.839V26.8513V26.8637V26.8758V26.8882V26.9003V26.9125V26.9245V26.9367V26.9487V26.9607V26.9727V26.9847V26.9965V27.0083V27.0202V27.032V27.0437V27.0553V27.067V27.0787V27.0903V27.1018V27.1133V27.1248V27.1363V27.1477V27.159V27.1703V27.1817V27.1928V27.204V27.2152V27.2263V27.2375V27.2485V27.2595V27.2703V27.2813V27.2922V27.303V27.3137V27.3245V27.3352V27.3458V27.3563V27.367V27.3775V27.388V27.3983V27.4087V27.419V27.4293V27.4397V27.4498V27.46V27.47V27.4802V27.4902V27.5V27.51V27.5198V27.5297V27.5395V27.5492V27.5588V27.5685V27.578V27.5875V27.597V27.6065V27.6158V27.6252V27.6345V27.6437V27.6528V27.662V27.671V27.6802V27.689V27.698V27.7068V27.7157V27.7245V27.7332V27.7418V27.7505V27.759V27.7675V27.776V27.7843V27.7927V27.801V27.8092V27.8173V27.8255V27.8335V27.8415V27.8495V27.8573V27.8652V27.873V27.8807V27.8883V27.896V27.9035V27.911V27.9185V27.9258V27.9332V27.9405V27.9477V27.9548V27.9618V27.9688V27.9758V27.9828V27.9897V27.9963V28.0032V28.0098V28.0163V28.023V28.0295V28.0358V28.0422V28.0485V28.0547V28.0608V28.067V28.073V28.079V28.085V28.0908V28.0967V28.1023V28.108V28.1137V28.1192V28.1247V28.13V28.1353V28.1407V28.1458V28.151V28.156V28.161V28.166V28.1708V28.1757V28.1805V28.1852V28.1897V28.1942V28.1987V28.2032V28.2075V28.2117V28.2158V28.22V28.224V28.228V28.232V28.2358V28.2397V28.2433V28.2468V28.2505V28.254V28.2573V28.2607V28.264V28.2672V28.2703V28.2733V28.2763V28.2793V28.2822V28.2848V28.2875V28.2902V28.2927V28.2952V28.2975V28.2998V28.3022V28.3043V28.3063V28.3083V28.3103V28.3122V28.314V28.3157V28.3188V28.3217V28.3243V28.3265V28.3285V28.3307V28.3327C29.9999 29.2532 29.2538 30 28.3333 30C27.4128 30 26.6666 29.2538 26.6666 28.3333V28.3313V28.3293V28.3275V28.3255V28.323V28.3203V28.3173V28.314V28.3122V28.3103V28.3083V28.3063V28.3043V28.3022V28.2998V28.2975V28.2952V28.2927V28.2902V28.2875V28.2848V28.2822V28.2793V28.2763V28.2733V28.2703V28.2672V28.264V28.2607V28.2573V28.254V28.2505V28.2468V28.2433V28.2397V28.2358V28.232V28.228V28.224V28.22V28.2158V28.2117V28.2075V28.2032V28.1987V28.1942V28.1897V28.1852V28.1805V28.1757V28.1708V28.166V28.161V28.156V28.151V28.1458V28.1407V28.1353V28.13V28.1247V28.1192V28.1137V28.108V28.1023V28.0967V28.0908V28.085V28.079V28.073V28.067V28.0608V28.0547V28.0485V28.0422V28.0358V28.0295V28.023V28.0163V28.0098V28.0032V27.9963V27.9897V27.9828V27.9758V27.9688V27.9618V27.9548V27.9477V27.9405V27.9332V27.9258V27.9185V27.911V27.9035V27.896V27.8883V27.8807V27.873V27.8652V27.8573V27.8495V27.8415V27.8335V27.8255V27.8173V27.8092V27.801V27.7927V27.7843V27.776V27.7675V27.759V27.7505V27.7418V27.7332V27.7245V27.7157V27.7068V27.698V27.689V27.6802V27.671V27.662V27.6528V27.6437V27.6345V27.6252V27.6158V27.6065V27.597V27.5875V27.578V27.5685V27.5588V27.5492V27.5395V27.5297V27.5198V27.51V27.5V27.4902V27.4802V27.47V27.46V27.4498V27.4397V27.4293V27.419V27.4087V27.3983V27.388V27.3775V27.367V27.3563V27.3458V27.3352V27.3245V27.3137V27.303V27.2922V27.2813V27.2703V27.2595V27.2485V27.2375V27.2263V27.2152V27.204V27.1928V27.1817V27.1703V27.159V27.1477V27.1363V27.1248V27.1133V27.1018V27.0903V27.0787V27.067V27.0553V27.0437V27.032V27.0202V27.0083V26.9965V26.9847V26.9727V26.9607V26.9487V26.9367V26.9245V26.9125V26.9003V26.8882V26.8758V26.8637V26.8513V26.839V26.8267V26.8143V26.8018V26.7893V26.7768V26.7643V26.7518V26.7392V26.7267V26.714V26.7013V26.6885V26.6758V26.663V26.6502V26.6373V26.6245V26.6115V26.5987V26.5857V26.5727V26.5597V26.5467V26.5335V26.5203V26.5073V26.4942V26.4808V26.4677V26.4545V26.4412V26.4278V26.4145V26.4012V26.3878V26.3743V26.361V26.3475V26.334V26.3205V26.307V26.2933V26.2798V26.2662V26.2525V26.2388V26.2252V26.2115V26.1977V26.184V26.1702V26.1563V26.1425V26.1287V26.1148V26.101V26.087V26.0732V26.0592V26.0452V26.0312V26.0172V26.0032V25.989V25.975V25.9608V25.9468V25.9327V25.9185V25.9043V25.8902V25.8758V25.8617V25.8475V25.8332V25.8188V25.8045V25.7903V25.776V25.7617V25.7472V25.7328V25.7185V25.704V25.6897V25.6752V25.6607V25.6462V25.6317V25.6172V25.6027V25.5882V25.5737V25.5592V25.5445V25.53V25.5153V25.5008V25.4862V25.4715V25.4568V25.4422V25.4275V25.4128V25.3982V25.3835V25.3688V25.354V25.3393V25.3245V25.3098V25.295V25.2803V25.2655V25.2507V25.236V25.2212V25.2063V25.1915V25.1767V25.1618V25.147V25.1322V25.1173V25.1025V25.0877V25.0727V25.0578V25.043V25.0282V25.0132V24.9983V24.9833V24.9685V24.9537V24.9387V24.9238V24.9088V24.8938V24.879V24.864V24.8492V24.8342V24.8193V24.8043V24.7893V24.7745V24.7595V24.7445V24.7297V24.7147V24.6997V24.6847V24.6698V24.6548V24.6398V24.625V24.61V24.595V24.5802V24.5652V24.5503V24.5353V24.5203V24.5055V24.4905V24.4757V24.4607V24.4457V24.4308V24.416V24.401V24.3862V24.3712V24.3563V24.3415V24.3265V24.3117V24.2968V24.282V24.267V24.2522V24.2373V24.2225V24.2077V24.1928V24.178V24.1632V24.1485V24.1337V24.1188V24.104V24.0893V24.0745V24.0598V24.045V24.0303V24.0155V24.0008V23.9862V23.9715V23.9568V23.9422V23.9275V23.9128V23.8982V23.8835V23.869V23.8543V23.8398V23.8252V23.8107V23.796V23.7815V23.767V23.7525V23.738V23.7235V23.709V23.6947V23.6802V23.6658V23.6513V23.637V23.6227V23.6083V23.5938V23.5797V23.5653V23.551V23.5367V23.5225V23.5082V23.494V23.4798V23.4657V23.4515V23.4373V23.4232V23.4092V23.395V23.381V23.3668V23.3528V23.3388V23.3248V23.311V23.297V23.283V23.2692V23.2553V23.2413V23.2275V23.2138V23.2V23.1862V23.1725V23.1588V23.145V23.1313V23.1177V23.1042V23.0905V23.077V23.0633V23.0498V23.0363V23.0228V23.0095V22.996V22.9827V22.9692V22.9558V22.9425V22.9293V22.916V22.9028V22.8897V22.8763V22.8633V22.8502V22.837V22.824V22.811V22.798V22.785V22.772V22.7592V22.7462V22.7333V22.7205V22.7077V22.695V22.6822V22.6695V22.6568V22.6442V22.6317V22.619C26.6666 21.3387 25.5676 20 24.1666 20C23.2931 20 22.3289 20.4748 21.6666 21.6052V21.6097V21.6268V21.644V21.6612V21.6785V21.6957V21.713V21.7303V21.7478V21.7652V21.7825V21.8V21.8175V21.835V21.8525V21.87V21.8877V21.9053V21.9228V21.9405V21.9582V21.9758V21.9937V22.0113V22.0292V22.047V22.0647V22.0827V22.1005V22.1183V22.1362V22.1542V22.1722V22.19V22.208V22.226V22.244V22.2622V22.2802V22.2983V22.3163V22.3345V22.3527V22.3708V22.389V22.4072V22.4253V22.4437V22.4618V22.4802V22.4983V22.5167V22.535V22.5533V22.5717V22.59V22.6083V22.6268V22.6452V22.6635V22.682V22.7005V22.7188V22.7373V22.7558V22.7743V22.7928V22.8113V22.8298V22.8483V22.867V22.8855V22.904V22.9227V22.9412V22.9598V22.9785V22.997V23.0157V23.0343V23.053V23.0715V23.0902V23.1088V23.1275V23.1463V23.165V23.1837V23.2023V23.221V23.2397V23.2585V23.2772V23.2958V23.3147V23.3333V23.3522V23.3708V23.3897V23.4083V23.427V23.4458V23.4647V23.4833V23.5022V23.5208V23.5397V23.5583V23.5772V23.596V23.6147V23.6335V23.6522V23.671V23.6898V23.7085V23.7273V23.746V23.7648V23.7835V23.8023V23.821V23.8398V23.8585V23.8773V23.896V23.9148V23.9335V23.9523V23.971V23.9897V24.0083V24.0272V24.0458V24.0645V24.0832V24.1018V24.1205V24.1392V24.1578V24.1765V24.1952V24.2138V24.2325V24.251V24.2697V24.2883V24.3068V24.3255V24.344V24.3627V24.3812V24.3997V24.4182V24.4367V24.4553V24.4738V24.4922V24.5107V24.5292V24.5477V24.566V24.5845V24.6028V24.6213V24.6397V24.658V24.6763V24.6947V24.713V24.7313V24.7497V24.7678V24.7862V24.8043V24.8227V24.8408V24.859V24.8772V24.8953V24.9135V24.9315V24.9497V24.9677V24.9858V25.0038V25.0218V25.0398V25.0578V25.0758V25.0937V25.1117V25.1295V25.1473V25.1652V25.183V25.2008V25.2187V25.2365V25.2542V25.2718V25.2895V25.3072V25.3248V25.3425V25.3602V25.3777V25.3952V25.4127V25.4302V25.4477V25.4652V25.4825V25.4998V25.5173V25.5347V25.5518V25.5692V25.5865V25.6037V25.6208V25.638V25.6552V25.6722V25.6893V25.7063V25.7233V25.7403V25.7573V25.7742V25.7912V25.808V25.8248V25.8415V25.8583V25.875V25.8917V25.9083V25.925V25.9417V25.9582V25.9747V25.9912V26.0077V26.024V26.0405V26.0568V26.0732V26.0893V26.1057V26.1218V26.138V26.1542V26.1702V26.1863V26.2023V26.2183V26.2342V26.2502V26.266V26.2818V26.2977V26.3133V26.329V26.3447V26.3603V26.376V26.3915V26.407V26.4223V26.4378V26.4532V26.4685V26.4838V26.499V26.5143V26.5295V26.5445V26.5597V26.5747V26.5897V26.6045V26.6195V26.6343V26.6492V26.6638V26.6785V26.6932V26.7078V26.7223V26.7368V26.7513V26.7658V26.7802V26.7945V26.8088V26.823V26.8372V26.8513V26.8655V26.8795V26.8935V26.9073V26.9212V26.935V26.9488V26.9627V26.9763V26.9898V27.0035V27.017V27.0305V27.0438V27.0572V27.0705V27.0838V27.097V27.1102V27.1232V27.1362V27.1492V27.1622V27.175V27.1878V27.2005V27.2133V27.226V27.2385V27.251V27.2635V27.276V27.2883V27.3005V27.3128V27.325V27.3372V27.3492V27.3612V27.3732V27.385V27.3968V27.4085V27.4203V27.4318V27.4435V27.455V27.4665V27.4778V27.4892V27.5003V27.5117V27.5228V27.5338V27.5448V27.5558V27.5667V27.5775V27.5882V27.5988V27.6095V27.6202V27.6305V27.641V27.6513V27.6617V27.6718V27.682V27.6922V27.7022V27.712V27.722V27.7318V27.7415V27.7512V27.7608V27.7703V27.7798V27.7892V27.7985V27.8078V27.817V27.826V27.8352V27.844V27.853V27.8618V27.8705V27.8792V27.8878V27.8963V27.9048V27.9132V27.9215V27.9297V27.9378V27.946V27.954V27.962V27.9698V27.9775V27.9853V27.9928V28.0005V28.008V28.0153V28.0227V28.0298V28.037V28.0442V28.0512V28.058V28.065V28.0717V28.0783V28.085V28.0915V28.098V28.1043V28.1107V28.1168V28.123V28.129V28.135V28.1408V28.1467V28.1523V28.158V28.1635V28.169V28.1743V28.1797V28.1848V28.19V28.195V28.2V28.2048V28.2097V28.2143V28.2188V28.2235V28.2278V28.2322V28.2365V28.2407V28.2447V28.2487V28.2527V28.2565V28.2602V28.2638V28.2673V28.2708V28.2742V28.2775V28.2807V28.2838V28.2868V28.2897V28.2925V28.2952V28.2978V28.3005V28.3028V28.3052V28.3075V28.3097V28.3118V28.3138V28.3157V28.3175V28.3192V28.3223V28.325V28.3273V28.3293V28.3315V28.3332C21.6666 29.2537 20.9204 30 19.9999 30C19.0794 30 18.3333 29.2538 18.3333 28.3333V28.3315V28.3293V28.3273V28.325V28.3223V28.3192V28.3175V28.3157V28.3138V28.3118V28.3097V28.3075V28.3052V28.3028V28.3005V28.2978V28.2952V28.2925V28.2897V28.2868V28.2838V28.2807V28.2775V28.2742V28.2708V28.2673V28.2638V28.2602V28.2565V28.2527V28.2487V28.2447V28.2407V28.2365V28.2322V28.2278V28.2235V28.2188V28.2143V28.2097V28.2048V28.2V28.195V28.19V28.1848V28.1797V28.1743V28.169V28.1635V28.158V28.1523V28.1467V28.1408V28.135V28.129V28.123V28.1168V28.1107V28.1043V28.098V28.0915V28.085V28.0783V28.0717V28.065V28.058V28.0512V28.0442V28.037V28.0298V28.0227V28.0153V28.008V28.0005V27.9928V27.9853V27.9775V27.9698V27.962V27.954V27.946V27.9378V27.9297V27.9215V27.9132V27.9048V27.8963V27.8878V27.8792V27.8705V27.8618V27.853V27.844V27.8352V27.826V27.817V27.8078V27.7985V27.7892V27.7798V27.7703V27.7608V27.7512V27.7415V27.7318V27.722V27.712V27.7022V27.6922V27.682V27.6718V27.6617V27.6513V27.641V27.6305V27.6202V27.6095V27.5988V27.5882V27.5775V27.5667V27.5558V27.5448V27.5338V27.5228V27.5117V27.5003V27.4892V27.4778V27.4665V27.455V27.4435V27.4318V27.4203V27.4085V27.3968V27.385V27.3732V27.3612V27.3492V27.3372V27.325V27.3128V27.3005V27.2883V27.276V27.2635V27.251V27.2385V27.226V27.2133V27.2005V27.1878V27.175V27.1622V27.1492V27.1362V27.1232V27.1102V27.097V27.0838V27.0705V27.0572V27.0438V27.0305V27.017V27.0035V26.9898V26.9763V26.9627V26.9488V26.935V26.9212V26.9073V26.8935V26.8795V26.8655V26.8513V26.8372V26.823V26.8088V26.7945V26.7802V26.7658V26.7513V26.7368V26.7223V26.7078V26.6932V26.6785V26.6638V26.6492V26.6343V26.6195V26.6045V26.5897V26.5747V26.5597V26.5445V26.5295V26.5143V26.499V26.4838V26.4685V26.4532V26.4378V26.4223V26.407V26.3915V26.376V26.3603V26.3447V26.329V26.3133V26.2977V26.2818V26.266V26.2502V26.2342V26.2183V26.2023V26.1863V26.1702V26.1542V26.138V26.1218V26.1057V26.0893V26.0732V26.0568V26.0405V26.024V26.0077V25.9912V25.9747V25.9582V25.9417V25.925V25.9083V25.8917V25.875V25.8583V25.8415V25.8248V25.808V25.7912V25.7742V25.7573V25.7403V25.7233V25.7063V25.6893V25.6722V25.6552V25.638V25.6208V25.6037V25.5865V25.5692V25.5518V25.5347V25.5173V25.4998V25.4825V25.4652V25.4477V25.4302V25.4127V25.3952V25.3777V25.3602V25.3425V25.3248V25.3072V25.2895V25.2718V25.2542V25.2365V25.2187V25.2008V25.183V25.1652V25.1473V25.1295V25.1117V25.0937V25.0758V25.0578V25.0398V25.0218V25.0038V24.9858V24.9677V24.9497V24.9315V24.9135V24.8953V24.8772V24.859V24.8408V24.8227V24.8043V24.7862V24.7678V24.7497V24.7313V24.713V24.6947V24.6763V24.658V24.6397V24.6213V24.6028V24.5845V24.566V24.5477V24.5292V24.5107V24.4922V24.4738V24.4553V24.4367V24.4182V24.3997V24.3812V24.3627V24.344V24.3255V24.3068V24.2883V24.2697V24.251V24.2325V24.2138V24.1952V24.1765V24.1578V24.1392V24.1205V24.1018V24.0832V24.0645V24.0458V24.0272V24.0083V23.9897V23.971V23.9523V23.9335V23.9148V23.896V23.8773V23.8585V23.8398V23.821V23.8023V23.7835V23.7648V23.746V23.7273V23.7085V23.6898V23.671V23.6522V23.6335V23.6147V23.596V23.5772V23.5583V23.5397V23.5208V23.5022V23.4833V23.4647V23.4458V23.427V23.4083V23.3897V23.3708V23.3522V23.3333V23.3147V23.2958V23.2772V23.2585V23.2397V23.221V23.2023V23.1837V23.165V23.1463V23.1275V23.1088V23.0902V23.0715V23.053V23.0343V23.0157V22.997V22.9785V22.9598V22.9412V22.9227V22.904V22.8855V22.867V22.8483V22.8298V22.8113V22.7928V22.7743V22.7558V22.7373V22.7188V22.7005V22.682V22.6635V22.6452V22.6268V22.6083V22.59V22.5717V22.5533V22.535V22.5167V22.4983V22.4802V22.4618V22.4437V22.4253V22.4072V22.389V22.3708V22.3527V22.3345V22.3163V22.2983V22.2802V22.2622V22.244V22.226V22.208V22.19V22.1722V22.1542V22.1362V22.1183V22.1005V22.0827V22.0647V22.047V22.0292V22.0113V21.9937V21.9758V21.9582V21.9405V21.9228V21.9053V21.8877V21.87V21.8525V21.835V21.8175V21.8V21.7825V21.7652V21.7478V21.7303V21.713V21.6957V21.6785V21.6612V21.644V21.6268V21.6097V21.5925V21.5753V21.5582V21.5412V21.5242V21.5072V21.4902V21.4733V21.4563V21.4395V21.4227V21.4058V21.3892V21.3723V21.3557V21.339V21.3223V21.3057V21.2892V21.2727V21.2562V21.2397V21.2232V21.2068V21.1905V21.184V21.1773V21.1708V21.1642V21.1577V21.151V21.1443V21.1377V21.131V21.1243V21.1177V21.111V21.1043V21.0977V21.0908V21.0842V21.0773V21.0705V21.0638V21.057V21.0502V21.0433V21.0365V21.0297V21.0228V21.016V21.0092V21.0022V20.9953V20.9883V20.9815V20.9745V20.9675V20.9607V20.9537V20.9467V20.9397V20.9327V20.9257V20.9187V20.9117V20.9045V20.8975V20.8905V20.8833V20.8763V20.8692V20.8622V20.855V20.8478V20.8408V20.8337V20.8265V20.8193V20.8122V20.805V20.7978V20.7907V20.7835V20.7762V20.769V20.7618V20.7547V20.7473V20.7402V20.7328V20.7257V20.7183V20.711V20.7038V20.6965V20.6892V20.682V20.6747V20.6673V20.66V20.6527V20.6453V20.638V20.6307V20.6233V20.616V20.6087V20.6012V20.5938V20.5865V20.5792V20.5717V20.5643V20.557V20.5495V20.5422V20.5347V20.5273V20.5198V20.5125V20.505V20.4977V20.4902V20.4827V20.4753V20.4678V20.4603V20.453V20.4455V20.438V20.4305V20.4232V20.4157V20.4082V20.4007V20.3932V20.3857V20.3783V20.3708V20.3633V20.3558V20.3483V20.3408V20.3333V20.3258V20.3183V20.3108V20.3033V20.2958V20.2883V20.2808V20.2733V20.2658V20.2583V20.2508V20.2433V20.2358V20.2283V20.2208V20.2133V20.2058V20.1983V20.1908V20.1833V20.1758V20.1682V20.1607V20.1532V20.1457V20.1382V20.1307V20.1232V20.1157V20.1082V20.1007V20.0933V20.0858V20.0783V20.0708V20.0633V20.0558V20.0483V20.0408V20.0333V20.0258V20.0185V20.011V20.0035V19.996V19.9887V19.9812V19.9737V19.9662V19.9588V19.9513V19.9438V19.9365V19.929V19.9217V19.9142V19.9068V19.8993V19.892V19.8845V19.8772V19.8698V19.8623V19.855V19.8477V19.8402V19.8328V19.8255V19.8182V19.8108V19.8035V19.7962V19.7888V19.7815V19.7742V19.7668V19.7595V19.7522V19.745V19.7377V19.7303V19.723V19.7158V19.7085V19.7013V19.694V19.6868V19.6795V19.6723V19.6652V19.658V19.6507V19.6435V19.6363V19.6292V19.622V19.6148V19.6077V19.6005V19.5935V19.5863V19.5792V19.5722V19.565V19.5578V19.5508V19.5438V19.5367V19.5297V19.5227V19.5157V19.5087V19.5015V19.4945V19.4877V19.4807V19.4737V19.4667V19.4598V19.4528V19.4458V19.439V19.4322V19.4252V19.4183V19.4115V19.4047V19.3978V19.391V19.3842V19.3773V19.3705V19.3638V19.357V19.3502V19.3435V19.3368V19.33V19.3233V19.3167V19.31V19.3033V19.2967V19.29V19.2833V19.2768V19.2702V19.2637V19.257V19.2505V19.244V19.2373V19.2308V19.2243V19.218V19.2115V19.205V19.1985V19.1922V19.1857V19.1793V19.173V19.1667V19.1603V19.154V19.1477V19.1413V19.135V19.1288V19.1225V19.1163V19.1102V19.1038V19.0977V19.0915V19.0853V19.0793V19.0732V19.067V19.061V19.0548V19.0488V19.0428V19.0368V19.0308V19.0248V19.0188V19.013V19.007V19.0012V18.9952V18.9893V18.9835V18.9777V18.9718V18.9662V18.9603V18.9547V18.9488V18.9432V18.9375V18.9318V18.9262V18.9205V18.9148V18.9093V18.9037V18.8982V18.8927V18.8872V18.8817V18.8762V18.8707V18.8653V18.8598V18.8545V18.8492V18.8438V18.8385V18.8332V18.8278V18.8227V18.8173V18.8122V18.807V18.8018V18.7967V18.7915V18.7865V18.7813V18.7763V18.7713V18.7663V18.7613V18.7563V18.7513V18.7465V18.7415V18.7367V18.7318V18.727V18.7222V18.7175V18.7127V18.708V18.7032V18.6985V18.6938V18.6893V18.6847V18.6802V18.6755V18.671V18.6665V18.662V18.6575V18.6532V18.6487V18.6443V18.64V18.6357V18.6313V18.6272V18.6228V18.6187V18.6145V18.6103V18.6062V18.602V18.598V18.5938V18.5898V18.5858V18.5818V18.5778V18.574V18.57V18.5662V18.5623V18.5585V18.5548V18.551V18.5473V18.5435V18.5398V18.5362V18.5327V18.529V18.5255V18.522V18.5185V18.515V18.5115V18.5082V18.5047V18.5013V18.498V18.4948V18.4915V18.4883V18.485V18.4818V18.4788V18.4757V18.4725V18.4695V18.4665V18.4635V18.4605V18.4577V18.4547V18.4518V18.449V18.4462V18.4435V18.4407V18.438V18.4353V18.4327V18.43V18.4275V18.425V18.4225V18.42V18.4175V18.415V18.4127V18.4103V18.408V18.4057V18.4035V18.4013V18.399V18.397V18.3948V18.3927V18.3907V18.3887V18.3867V18.3847V18.3828V18.381V18.3792V18.3773V18.3755V18.3738V18.372V18.3703V18.3672V18.3642V18.3612V18.3583V18.3557V18.3532V18.3508V18.3485V18.3465V18.3445V18.342V18.3403V18.3383V18.3367V18.3347C18.3333 17.4142 19.0794 16.6667 19.9999 16.6667Z" fill="#8D8144"/>
</svg>
